# xmcd
#
# Track frame offsets: 
#        150
#        7294
#        11350
#        15079
#        18535
#        27507
#        34318
#        40561
#        48964
#        52889
#        57553
#        61163
#        64949
#        68685
#        72131
#        75417
#        80398
#        81834
#        85774
#        92961
#        104401
#        106800
#        113831
#        119545
#        125753
#        130913
#        137039
#        140818
#        148593
#        153001
#        163723
#        173617
#        183784
#        187706
#        191244
#        194639
#        198087
#        198669
#        199463
#        201409
#        210264
#        212736
#        229342
#        239426
#        247495
#        251786
#        256197
#        262933
#        266599
#        270878
#        274442
#        277871
#        281279
#        284308
#        289294
#        290317
#        291984
#        295195
#        297246
#        308404
#        314804
#
# Disc length: 4237 seconds
#
# Revision: 2
# Processed by: cddbd v1.4PL0 Copyright (c) Steve Scherf et al.
# Submitted via: ExactAudioCopy v0.90a11
#
DISCID=9e108b3d
DTITLE=Simon Emmerson - Afro Celt Sound System
DYEAR=1900
DGENRE=
TTITLE0=Drums Loop
TTITLE1=Drums Loop
TTITLE2=Drums Loop
TTITLE3=Drums Loop
TTITLE4=Drums Loop
TTITLE5=Drums Loop
TTITLE6=Drums Loop
TTITLE7=Drums Loop
TTITLE8=Drums Loop
TTITLE9=Drums Loop
TTITLE10=Drums Loop
TTITLE11=Drums Loop
TTITLE12=Drums Loop
TTITLE13=Drums Loop
TTITLE14=Drums Loop
TTITLE15=Drums Loop
TTITLE16=Drums Loop
TTITLE17=Drums Loop
TTITLE18=Drums Loop
TTITLE19=Drums Loop
TTITLE20=Drums Loop
TTITLE21=Drums Loop
TTITLE22=Drums Loop
TTITLE23=Drums Loop
TTITLE24=Drums Loop
TTITLE25=Drums Loop
TTITLE26=Drums Loop
TTITLE27=Drums Loop
TTITLE28=Drums Loop
TTITLE29=Drums Loop
TTITLE30=Drums Loop
TTITLE31=Drums Loop
TTITLE32=Drums Loop
TTITLE33=Drums Loop
TTITLE34=Drums Loop
TTITLE35=Drums Loop
TTITLE36=Drums Loop
TTITLE37=Drums Loop
TTITLE38=Drums Loop
TTITLE39=Drums Loop
TTITLE40=Drums Loop
TTITLE41=Drums Loop
TTITLE42=Drums Loop
TTITLE43=Drums Loop
TTITLE44=Drums Loop
TTITLE45=Drums Loop
TTITLE46=Drums Loop
TTITLE47=Drums Loop
TTITLE48=Drums Loop
TTITLE49=Drums Loop
TTITLE50=Drums Loop
TTITLE51=Drums Loop
TTITLE52=Drums Loop
TTITLE53=Drums Loop
TTITLE54=Drums Loop
TTITLE55=Drums Loop
TTITLE56=Drums Loop
TTITLE57=Drums Loop
TTITLE58=Drums Loop
TTITLE59=Drums Loop
TTITLE60=Drums Loop
EXTD=
EXTT0=
EXTT1=
EXTT2=
EXTT3=
EXTT4=
EXTT5=
EXTT6=
EXTT7=
EXTT8=
EXTT9=
EXTT10=
EXTT11=
EXTT12=
EXTT13=
EXTT14=
EXTT15=
EXTT16=
EXTT17=
EXTT18=
EXTT19=
EXTT20=
EXTT21=
EXTT22=
EXTT23=
EXTT24=
EXTT25=
EXTT26=
EXTT27=
EXTT28=
EXTT29=
EXTT30=
EXTT31=
EXTT32=
EXTT33=
EXTT34=
EXTT35=
EXTT36=
EXTT37=
EXTT38=
EXTT39=
EXTT40=
EXTT41=
EXTT42=
EXTT43=
EXTT44=
EXTT45=
EXTT46=
EXTT47=
EXTT48=
EXTT49=
EXTT50=
EXTT51=
EXTT52=
EXTT53=
EXTT54=
EXTT55=
EXTT56=
EXTT57=
EXTT58=
EXTT59=
EXTT60=
PLAYORDER=
